<svg width="135" height="135" viewBox="0 0 135 135" fill="none" xmlns="http://www.w3.org/2000/svg">
<g filter="url(#filter0_d_1_353)">
<path d="M48.7001 24.853C58.4872 21.0318 73.0583 36.2166 73.1366 36.2983C73.1366 36.2983 92.6968 24.5403 100.522 32.059C108.739 39.9543 95.4667 60.8862 95.4667 60.8862C95.4667 60.8862 110.581 68.6812 113.797 76.1567C118.795 87.7772 108.797 97.1567 96.7967 101.157C84.722 105.182 65.6393 99.4879 65.5536 99.4623C65.5536 99.4623 45.967 117.081 37.3251 109.212C30.0193 102.56 37.2972 83.8494 37.3251 83.7778C37.3251 83.7778 19.4113 73.7179 20.4715 63.4291C21.4197 54.2299 37.3251 46.8969 37.3251 46.8969C37.3251 46.8969 39.7129 28.3623 48.7001 24.853Z" fill="#D9D9D9"/>
<path d="M48.7001 24.853L43.2447 10.8802L43.244 10.8804L48.7001 24.853ZM73.1366 36.2983L62.3069 46.677C67.155 51.7357 74.8593 52.7642 80.8646 49.1543L73.1366 36.2983ZM100.522 32.059L110.916 21.2432L110.915 21.2425L100.522 32.059ZM95.4667 60.8862L82.7985 52.8539C80.5442 56.4093 79.8877 60.7484 80.9894 64.8116C82.0911 68.8747 84.8495 72.2879 88.5911 74.2176L95.4667 60.8862ZM113.797 76.1567L127.576 70.2295L127.576 70.229L113.797 76.1567ZM96.7967 101.157L101.54 115.387L101.54 115.387L96.7967 101.157ZM65.5536 99.4623L69.8483 85.0903C64.838 83.5931 59.4096 84.8132 55.5219 88.3104L65.5536 99.4623ZM37.3251 109.212L27.2261 120.303L27.2262 120.303L37.3251 109.212ZM37.3251 83.7778L51.3024 89.2214C54.0148 82.2571 51.1864 74.3585 44.6697 70.6989L37.3251 83.7778ZM20.4715 63.4291L5.55059 61.8913L5.55056 61.8915L20.4715 63.4291ZM37.3251 46.8969L43.6053 60.5189C48.2947 58.3569 51.5423 53.9349 52.2021 48.8135L37.3251 46.8969ZM48.7001 24.853L54.1554 38.8258C52.1821 39.5962 51.0908 38.9892 52.0195 39.2896C52.8783 39.5674 54.2887 40.2627 56.1017 41.5004C59.7002 43.9571 62.5202 46.8996 62.3069 46.677L73.1366 36.2983L83.9662 25.9195C83.6747 25.6153 79.17 20.9246 73.0166 16.7237C69.9536 14.6326 65.8813 12.2431 61.2529 10.7459C56.6944 9.27131 50.1116 8.19915 43.2447 10.8802L48.7001 24.853ZM73.1366 36.2983C80.8646 49.1543 80.8618 49.156 80.859 49.1577C80.8582 49.1582 80.8555 49.1598 80.8539 49.1607C80.8506 49.1627 80.8476 49.1645 80.8449 49.1661C80.8395 49.1694 80.8352 49.172 80.8319 49.1739C80.8255 49.1777 80.8235 49.1789 80.8257 49.1776C80.8302 49.1749 80.8518 49.1622 80.8894 49.1404C80.9648 49.0966 81.1037 49.0168 81.2987 48.908C81.6908 48.6893 82.2972 48.3607 83.0606 47.9763C84.63 47.1861 86.6576 46.2647 88.7331 45.5574C90.9433 44.8043 92.4466 44.5588 93.1719 44.5477C93.9045 44.5364 92.0787 44.748 90.1299 42.8755L100.522 32.059L110.915 21.2425C105.053 15.6107 97.8478 14.4725 92.712 14.5512C87.5687 14.6301 82.7147 15.9143 79.0567 17.1608C75.2639 18.4532 71.9124 20.0014 69.5697 21.1809C68.3771 21.7813 67.3942 22.3125 66.686 22.7074C66.3309 22.9055 66.0419 23.071 65.8269 23.1958C65.7194 23.2582 65.6301 23.3106 65.5601 23.352C65.5251 23.3727 65.4949 23.3906 65.4696 23.4057C65.457 23.4132 65.4456 23.42 65.4354 23.4261C65.4303 23.4292 65.4255 23.4321 65.4211 23.4347C65.4188 23.4361 65.4157 23.4379 65.4146 23.4386C65.4116 23.4404 65.4086 23.4422 73.1366 36.2983ZM100.522 32.059L90.1291 42.8748C87.9903 40.8196 88.2261 38.7251 88.2049 39.4606C88.1829 40.2221 87.8859 41.8437 87 44.2489C86.1708 46.5002 85.1008 48.706 84.1859 50.4162C83.7403 51.249 83.3587 51.9138 83.1025 52.348C82.975 52.564 82.8804 52.7198 82.8267 52.8074C82.7999 52.8512 82.7834 52.8776 82.7784 52.8857C82.7758 52.8898 82.7761 52.8893 82.7795 52.884C82.7811 52.8814 82.7835 52.8776 82.7867 52.8726C82.7883 52.87 82.79 52.8672 82.792 52.8641C82.793 52.8626 82.7946 52.86 82.7951 52.8592C82.7968 52.8566 82.7985 52.8539 95.4667 60.8862C108.135 68.9184 108.137 68.9156 108.139 68.9126C108.139 68.9115 108.141 68.9085 108.143 68.9063C108.145 68.9019 108.148 68.8972 108.151 68.8921C108.158 68.882 108.165 68.8706 108.173 68.8579C108.189 68.8325 108.208 68.8018 108.231 68.766C108.275 68.6945 108.332 68.6024 108.401 68.4909C108.537 68.268 108.72 67.9664 108.939 67.5947C109.377 66.8533 109.968 65.8211 110.638 64.5682C111.955 62.1069 113.689 58.5863 115.151 54.6177C116.556 50.803 118.037 45.7113 118.192 40.3275C118.349 34.9177 117.162 27.2461 110.916 21.2432L100.522 32.059ZM95.4667 60.8862C88.5911 74.2176 88.5892 74.2166 88.5873 74.2156C88.5867 74.2153 88.5849 74.2144 88.5838 74.2138C88.5816 74.2127 88.5797 74.2117 88.5779 74.2108C88.5744 74.209 88.5718 74.2076 88.57 74.2067C88.5665 74.2048 88.5664 74.2048 88.5696 74.2065C88.5762 74.2099 88.5961 74.2203 88.6285 74.2374C88.6935 74.2718 88.8082 74.3329 88.9664 74.4187C89.2836 74.5909 89.7698 74.8597 90.3752 75.2094C91.6028 75.9186 93.2359 76.9119 94.9096 78.0662C96.6246 79.249 98.1267 80.426 99.2255 81.4737C100.506 82.6945 100.382 82.9302 100.018 82.0844L113.797 76.1567L127.576 70.229C125.604 65.6454 122.384 62.1034 119.926 59.7602C117.287 57.2438 114.407 55.0704 111.942 53.37C109.435 51.6411 107.089 50.2185 105.382 49.2325C104.52 48.7346 103.8 48.336 103.278 48.0527C103.017 47.9108 102.804 47.7971 102.646 47.7136C102.567 47.6718 102.501 47.6376 102.451 47.611C102.425 47.5977 102.403 47.5864 102.385 47.577C102.376 47.5723 102.368 47.5681 102.361 47.5644C102.357 47.5626 102.354 47.5608 102.351 47.5592C102.349 47.5584 102.347 47.5573 102.346 47.5569C102.344 47.5558 102.342 47.5548 95.4667 60.8862ZM113.797 76.1567L100.017 82.0839C100.213 82.5387 100.063 82.4131 100.134 81.9781C100.19 81.6345 100.287 81.7247 99.8741 82.25C98.8603 83.5409 96.2455 85.529 92.0533 86.9264L96.7967 101.157L101.54 115.387C109.348 112.784 117.732 108.083 123.468 100.779C129.754 92.775 132.537 81.7623 127.576 70.2295L113.797 76.1567ZM96.7967 101.157L92.0533 86.9264C89.5258 87.7689 84.6936 87.8442 78.858 86.9875C73.5658 86.2106 69.54 84.9982 69.8483 85.0903L65.5536 99.4623L61.2589 113.834C61.6528 113.952 67.2113 115.599 74.5006 116.669C81.2464 117.66 91.993 118.569 101.54 115.387L96.7967 101.157ZM65.5536 99.4623C55.5219 88.3104 55.5243 88.3083 55.5265 88.3062C55.5272 88.3057 55.5294 88.3037 55.5307 88.3025C55.5333 88.3001 55.5357 88.298 55.5378 88.2962C55.5419 88.2924 55.5449 88.2897 55.5468 88.288C55.5506 88.2846 55.55 88.2852 55.5451 88.2896C55.5352 88.2984 55.5081 88.3223 55.4648 88.3601C55.3779 88.436 55.2269 88.5667 55.0188 88.7424C54.6006 89.0955 53.9639 89.62 53.1655 90.2393C51.5248 91.5117 49.4073 93.0228 47.2285 94.2699C44.8755 95.6168 43.3459 96.1348 42.7434 96.2424C42.27 96.327 44.8697 95.7955 47.424 98.1212L37.3251 109.212L27.2262 120.303C34.1014 126.564 42.3902 126.781 48.0198 125.775C53.5203 124.792 58.5078 122.381 62.1316 120.306C65.9297 118.132 69.249 115.731 71.5508 113.945C72.7236 113.036 73.6847 112.245 74.3714 111.666C74.7158 111.375 74.9939 111.135 75.1982 110.956C75.3004 110.867 75.3844 110.793 75.4492 110.736C75.4816 110.707 75.5092 110.682 75.5319 110.662C75.5432 110.652 75.5534 110.643 75.5622 110.635C75.5667 110.631 75.5708 110.627 75.5747 110.624C75.5766 110.622 75.5792 110.62 75.5802 110.619C75.5827 110.617 75.5852 110.614 65.5536 99.4623ZM37.3251 109.212L47.4241 98.1213C49.2156 99.7527 49.2141 101.29 49.1175 100.536C49.0297 99.8507 49.0433 98.4804 49.3752 96.4673C50.0321 92.4825 51.4181 88.9245 51.3024 89.2214L37.3251 83.7778L23.3477 78.3341C23.2042 78.7027 20.9373 84.5358 19.7747 91.5873C19.1969 95.0923 18.7591 99.6515 19.3606 104.347C19.9532 108.975 21.7816 115.346 27.2261 120.303L37.3251 109.212ZM37.3251 83.7778C44.6697 70.6989 44.6726 70.7006 44.6755 70.7021C44.6763 70.7026 44.6791 70.7042 44.6808 70.7051C44.6842 70.7071 44.6873 70.7088 44.6902 70.7105C44.696 70.7137 44.7008 70.7164 44.7046 70.7186C44.7121 70.7229 44.7157 70.7249 44.7153 70.7247C44.7146 70.7243 44.6985 70.715 44.668 70.6973C44.6069 70.6617 44.4892 70.5926 44.3234 70.4923C43.99 70.2905 43.4733 69.9695 42.8387 69.5481C41.5359 68.6833 39.9018 67.5056 38.3759 66.171C36.7714 64.7677 35.768 63.6072 35.2899 62.8606C34.7698 62.0484 35.6043 62.9117 35.3925 64.9668L20.4715 63.4291L5.55056 61.8915C4.80865 69.091 7.48475 75.07 10.0253 79.0377C12.6079 83.0711 15.8841 86.3547 18.6255 88.7525C21.4456 91.219 24.2236 93.1992 26.2465 94.5422C27.2747 95.2247 28.1492 95.7699 28.7914 96.1585C29.1134 96.3534 29.3795 96.5104 29.5803 96.6272C29.6808 96.6857 29.7651 96.7342 29.8321 96.7725C29.8656 96.7917 29.8948 96.8083 29.9196 96.8223C29.932 96.8293 29.9432 96.8357 29.9534 96.8414C29.9584 96.8442 29.9632 96.8469 29.9677 96.8495C29.97 96.8507 29.9731 96.8525 29.9743 96.8531C29.9774 96.8549 29.9804 96.8566 37.3251 83.7778ZM20.4715 63.4291L35.3925 64.967C35.216 66.6791 34.5049 67.2068 35.1041 66.4761C35.6339 65.8299 36.6235 64.9028 38.0862 63.8372C39.4847 62.8184 40.9363 61.9465 42.0735 61.3188C42.6272 61.0132 43.071 60.7849 43.3503 60.6452C43.4892 60.5757 43.5848 60.5295 43.6302 60.5077C43.6528 60.4969 43.6627 60.4922 43.6589 60.494C43.657 60.4949 43.6516 60.4974 43.6427 60.5016C43.6383 60.5036 43.633 60.5061 43.6267 60.509C43.6236 60.5104 43.6203 60.512 43.6167 60.5136C43.6149 60.5145 43.6121 60.5158 43.6112 60.5162C43.6083 60.5175 43.6053 60.5189 37.3251 46.8969C31.0448 33.2749 31.0417 33.2763 31.0386 33.2778C31.0374 33.2783 31.0342 33.2798 31.032 33.2809C31.0274 33.283 31.0226 33.2852 31.0176 33.2875C31.0075 33.2922 30.9964 33.2973 30.9843 33.303C30.9601 33.3142 30.932 33.3274 30.8999 33.3424C30.8359 33.3725 30.7563 33.4102 30.6622 33.4553C30.4742 33.5455 30.2271 33.6657 29.9292 33.8147C29.335 34.112 28.5288 34.5285 27.5766 35.054C25.7019 36.0888 23.1178 37.6251 20.4215 39.5894C17.7894 41.5069 14.6249 44.1379 11.9057 47.454C9.25599 50.6855 6.20112 55.5795 5.55059 61.8913L20.4715 63.4291ZM37.3251 46.8969C52.2021 48.8135 52.2017 48.8167 52.2013 48.8199C52.2012 48.8208 52.2008 48.8239 52.2005 48.8259C52.2 48.8297 52.1995 48.8333 52.1991 48.8366C52.1982 48.8433 52.1975 48.8489 52.1969 48.8534C52.1957 48.8625 52.195 48.8675 52.1949 48.8684C52.1946 48.8703 52.1966 48.8562 52.2008 48.8271C52.2092 48.7686 52.2266 48.651 52.2538 48.482C52.3087 48.1421 52.4014 47.6059 52.5381 46.9334C52.8185 45.5537 53.2488 43.7744 53.8476 42.0089C54.4743 40.1611 55.1125 38.8474 55.6113 38.0994C56.1723 37.258 55.8524 38.1631 54.1561 38.8255L48.7001 24.853L43.244 10.8804C37.0541 13.2975 33.0655 17.8355 30.6512 21.4563C28.1746 25.1705 26.5308 29.1485 25.4372 32.373C24.3156 35.6799 23.5872 38.7535 23.1391 40.9587C22.9115 42.0786 22.7474 43.0179 22.6366 43.7053C22.581 44.0499 22.5383 44.334 22.5074 44.5487C22.4919 44.6562 22.4793 44.7466 22.4695 44.8188C22.4646 44.8549 22.4603 44.8865 22.4567 44.9135C22.455 44.927 22.4533 44.9393 22.4519 44.9504C22.4512 44.956 22.4505 44.9613 22.4498 44.9663C22.4495 44.9687 22.449 44.9723 22.4489 44.9735C22.4484 44.9769 22.448 44.9803 37.3251 46.8969Z" fill="white"/>
</g>
<path d="M48.7005 24.8522C58.4876 21.0311 73.0585 36.2156 73.137 36.2975C73.137 36.2975 92.6973 24.5396 100.523 32.0583C108.739 39.9535 95.4671 60.8854 95.4671 60.8854C95.4671 60.8854 110.581 68.6805 113.797 76.1559C118.796 87.7764 108.797 97.1559 96.7972 101.156C84.7224 105.181 65.6394 99.4871 65.554 99.4616C65.554 99.4616 45.9675 117.08 37.3255 109.212C30.0197 102.559 37.2978 83.8481 37.3255 83.777C37.3255 83.777 19.4117 73.7172 20.472 63.4284C21.4201 54.2291 37.3255 46.8962 37.3255 46.8962C37.3255 46.8962 39.7133 28.3616 48.7005 24.8522Z" fill="#061520"/>
<path d="M48.7005 24.8522L45.0636 15.537L45.0631 15.5372L48.7005 24.8522ZM73.137 36.2975L65.9173 43.2167C69.1493 46.5892 74.2855 47.2748 78.289 44.8682L73.137 36.2975ZM100.523 32.0583L107.452 24.8478L107.451 24.8473L100.523 32.0583ZM95.4671 60.8854L87.0217 55.5306C85.5188 57.9009 85.0811 60.7936 85.8156 63.5024C86.5501 66.2111 88.389 68.4866 90.8834 69.773L95.4671 60.8854ZM113.797 76.1559L122.983 72.2045L122.983 72.2042L113.797 76.1559ZM96.7972 101.156L99.9595 110.643L99.9595 110.643L96.7972 101.156ZM65.554 99.4616L68.4172 89.8802C65.077 88.8821 61.4581 89.6955 58.8663 92.027L65.554 99.4616ZM37.3255 109.212L30.5929 116.606L30.5929 116.606L37.3255 109.212ZM37.3255 83.777L46.6437 87.4062C48.452 82.7633 46.5664 77.4975 42.222 75.0578L37.3255 83.777ZM20.472 63.4284L10.5247 62.4032L10.5247 62.4033L20.472 63.4284ZM37.3255 46.8962L41.5124 55.9775C44.6386 54.5362 46.8037 51.5882 47.2436 48.1739L37.3255 46.8962ZM48.7005 24.8522L52.3374 34.1674C51.8375 34.3626 52.0252 34.0355 53.5588 34.5316C55.0459 35.0126 56.8999 35.9903 58.9212 37.3702C62.9455 40.1175 66.0463 43.3513 65.9173 43.2167L73.137 36.2975L80.3568 29.3783C80.1493 29.1618 75.9253 24.7624 70.1977 20.8523C67.3431 18.9035 63.7144 16.7963 59.7143 15.5024C55.7609 14.2235 50.4571 13.4313 45.0636 15.537L48.7005 24.8522ZM73.137 36.2975C78.289 44.8682 78.2872 44.8694 78.2854 44.8704C78.2849 44.8707 78.2832 44.8717 78.2822 44.8723C78.2802 44.8735 78.2785 44.8746 78.2771 44.8754C78.2743 44.8771 78.2726 44.8781 78.272 44.8784C78.2709 44.8791 78.2742 44.8771 78.2819 44.8726C78.2973 44.8635 78.3302 44.8441 78.3794 44.8155C78.4781 44.7582 78.642 44.6642 78.8637 44.5405C79.3085 44.2925 79.9776 43.93 80.8126 43.5096C82.5109 42.6546 84.7591 41.6287 87.1208 40.8239C89.5723 39.9885 91.6341 39.5699 93.0957 39.5475C94.5622 39.525 94.2416 39.891 93.5945 39.2693L100.523 32.0583L107.451 24.8473C102.891 20.4662 97.191 19.4824 92.7891 19.5499C88.3822 19.6174 84.0866 20.7286 80.6699 21.8929C77.1633 23.0877 74.0324 24.5314 71.8186 25.646C70.6975 26.2105 69.7774 26.7079 69.1219 27.0735C68.7935 27.2567 68.5295 27.4078 68.3378 27.5191C68.2419 27.5748 68.1639 27.6206 68.1049 27.6555C68.0753 27.673 68.0505 27.6877 68.0305 27.6997C68.0205 27.7056 68.0117 27.7109 68.0041 27.7154C68.0003 27.7177 67.9968 27.7198 67.9937 27.7217C67.9921 27.7226 67.9899 27.7239 67.9891 27.7244C67.987 27.7256 67.985 27.7268 73.137 36.2975ZM100.523 32.0583L93.594 39.2688C92.8528 38.5566 93.247 38.0898 93.2032 39.6043C93.159 41.1362 92.6647 43.3362 91.6923 45.9763C90.7577 48.5138 89.577 50.9388 88.595 52.7742C88.112 53.677 87.6955 54.403 87.4091 54.8884C87.2663 55.1304 87.157 55.3105 87.0895 55.4206C87.0558 55.4756 87.0325 55.513 87.0209 55.5317C87.015 55.5411 87.0121 55.5457 87.0122 55.5456C87.0122 55.5455 87.013 55.5442 87.0146 55.5418C87.0154 55.5405 87.0164 55.539 87.0175 55.5371C87.0181 55.5362 87.0192 55.5345 87.0195 55.5341C87.0205 55.5324 87.0217 55.5306 95.4671 60.8854C103.913 66.2403 103.914 66.2383 103.915 66.2363C103.916 66.2355 103.917 66.2334 103.918 66.2319C103.92 66.2287 103.922 66.2253 103.924 66.2215C103.929 66.2139 103.935 66.205 103.941 66.1949C103.954 66.1745 103.97 66.1491 103.989 66.1186C104.027 66.0576 104.077 65.9765 104.139 65.8762C104.262 65.6759 104.43 65.3986 104.634 65.0528C105.041 64.3627 105.597 63.3917 106.23 62.2088C107.48 59.8727 109.103 56.5712 110.46 52.8888C111.778 49.3091 113.062 44.7957 113.195 40.1823C113.329 35.5516 112.301 29.5076 107.452 24.8478L100.523 32.0583ZM95.4671 60.8854C90.8834 69.773 90.8821 69.7724 90.8809 69.7718C90.8806 69.7716 90.8794 69.771 90.8788 69.7707C90.8775 69.77 90.8764 69.7694 90.8755 69.769C90.8738 69.7681 90.873 69.7676 90.873 69.7677C90.8731 69.7677 90.8766 69.7695 90.8836 69.7732C90.8975 69.7804 90.925 69.7948 90.9652 69.8161C91.0457 69.8586 91.1768 69.9284 91.3522 70.0236C91.7035 70.2144 92.2286 70.5048 92.8767 70.8792C94.1842 71.6345 95.9362 72.6994 97.7488 73.9494C99.5889 75.2185 101.32 76.5616 102.676 77.854C103.346 78.4923 103.842 79.0419 104.188 79.4867C104.545 79.946 104.631 80.1549 104.611 80.1077L113.797 76.1559L122.983 72.2042C121.401 68.5255 118.738 65.5345 116.477 63.3784C114.094 61.1068 111.444 59.0994 109.104 57.4853C106.736 55.8522 104.508 54.5011 102.881 53.5612C102.062 53.0881 101.381 52.7111 100.894 52.4463C100.649 52.3138 100.453 52.2088 100.31 52.1335C100.239 52.0959 100.181 52.0656 100.138 52.0429C100.116 52.0315 100.098 52.0221 100.083 52.0146C100.076 52.0108 100.07 52.0075 100.064 52.0047C100.062 52.0033 100.059 52.0021 100.057 52.0009C100.056 52.0003 100.054 51.9996 100.054 51.9993C100.052 51.9985 100.051 51.9978 95.4671 60.8854ZM113.797 76.1559L104.611 80.1074C105.469 82.1026 105.241 83.5108 103.807 85.3374C102.006 87.6305 98.4297 90.0708 93.6349 91.6691L96.7972 101.156L99.9595 110.643C107.165 108.241 114.588 103.992 119.536 97.6899C124.852 90.9216 127.124 81.8297 122.983 72.2045L113.797 76.1559ZM96.7972 101.156L93.6349 91.6691C89.9374 92.9016 84.1194 92.8127 78.1321 91.9337C72.507 91.108 68.2258 89.8231 68.4172 89.8802L65.554 99.4616L62.6909 109.043C62.9676 109.126 68.2707 110.7 75.2271 111.722C81.8213 112.69 91.5822 113.435 99.9595 110.643L96.7972 101.156ZM65.554 99.4616C58.8663 92.027 58.8678 92.0256 58.8693 92.0243C58.8697 92.0239 58.871 92.0227 58.8718 92.022C58.8734 92.0206 58.8746 92.0194 58.8756 92.0186C58.8776 92.0168 58.8784 92.0161 58.8781 92.0163C58.8775 92.0169 58.8724 92.0214 58.8629 92.0299C58.8439 92.0468 58.8073 92.079 58.7541 92.1255C58.6477 92.2184 58.4755 92.3674 58.2447 92.5622C57.7817 92.9531 57.091 93.5219 56.2302 94.1896C54.4793 95.5475 52.1615 97.207 49.7128 98.6086C47.148 100.077 45.0421 100.91 43.6232 101.164C42.2905 101.402 43.0754 100.923 44.0581 101.818L37.3255 109.212L30.5929 116.606C35.8966 121.435 42.3706 121.704 47.1409 120.852C51.8251 120.015 56.2362 117.919 59.6482 115.966C63.1764 113.947 66.2954 111.693 68.487 109.994C69.5975 109.132 70.5045 108.386 71.1464 107.844C71.4681 107.573 71.7251 107.351 71.9098 107.19C72.0022 107.109 72.0767 107.043 72.1323 106.994C72.1601 106.969 72.1832 106.949 72.2015 106.932C72.2106 106.924 72.2186 106.917 72.2253 106.911C72.2287 106.908 72.2317 106.905 72.2345 106.903C72.2358 106.902 72.2377 106.9 72.2384 106.899C72.2401 106.898 72.2418 106.896 65.554 99.4616ZM37.3255 109.212L44.0582 101.818C44.6438 102.351 44.3377 102.57 44.1584 101.171C43.985 99.8166 44.0693 97.9149 44.4422 95.653C45.1835 91.1571 46.7163 87.2199 46.6437 87.4062L37.3255 83.777L28.0073 80.1479C27.9071 80.4053 25.7869 85.8592 24.7086 92.3996C24.1718 95.656 23.8046 99.6838 24.3205 103.711C24.8305 107.693 26.3543 112.746 30.5929 116.606L37.3255 109.212ZM37.3255 83.777C42.222 75.0578 42.2239 75.0589 42.2257 75.0599C42.2262 75.0602 42.228 75.0612 42.229 75.0618C42.2311 75.063 42.233 75.064 42.2345 75.0649C42.2377 75.0667 42.2398 75.0679 42.2409 75.0685C42.243 75.0697 42.2411 75.0686 42.2352 75.0653C42.2235 75.0585 42.196 75.0428 42.1538 75.0182C42.0694 74.9691 41.927 74.8853 41.7352 74.7693C41.3504 74.5364 40.774 74.1779 40.0738 73.7131C38.651 72.7686 36.8262 71.4571 35.0846 69.9339C33.2907 68.3648 31.9084 66.8504 31.0796 65.5561C30.2228 64.2179 30.4722 63.9408 30.4193 64.4535L20.472 63.4284L10.5247 62.4033C9.94172 68.0603 12.0327 72.899 14.2365 76.3408C16.4684 79.8264 19.3657 82.7561 21.9177 84.9882C24.522 87.266 27.1094 89.1125 29.0123 90.3758C29.9749 91.0148 30.7898 91.5226 31.3805 91.8801C31.6765 92.0592 31.9179 92.2016 32.0954 92.3049C32.1842 92.3565 32.2571 92.3985 32.3131 92.4305C32.3411 92.4465 32.3648 92.46 32.3842 92.4709C32.3939 92.4764 32.4025 92.4813 32.41 92.4855C32.4137 92.4876 32.4172 92.4896 32.4204 92.4913C32.4219 92.4922 32.4241 92.4935 32.4249 92.4939C32.427 92.4951 32.4291 92.4962 37.3255 83.777ZM20.472 63.4284L30.4193 64.4536C30.3807 64.8285 30.2972 64.4525 31.2381 63.305C32.1328 62.2139 33.4849 61.0028 35.1426 59.7952C36.7574 58.6188 38.3977 57.6361 39.6578 56.9406C40.278 56.5983 40.7821 56.3387 41.1139 56.1727C41.2793 56.09 41.4001 56.0314 41.4693 55.9982C41.5038 55.9817 41.5253 55.9716 41.5328 55.968C41.5366 55.9663 41.5368 55.9662 41.5335 55.9677C41.5318 55.9685 41.5292 55.9697 41.5257 55.9713C41.5239 55.9722 41.5219 55.9731 41.5197 55.9741C41.5186 55.9746 41.5168 55.9755 41.5162 55.9757C41.5143 55.9766 41.5124 55.9775 37.3255 46.8962C33.1387 37.8149 33.1366 37.8158 33.1345 37.8168C33.1337 37.8172 33.1315 37.8182 33.1299 37.8189C33.1267 37.8204 33.1233 37.822 33.1196 37.8237C33.1122 37.8271 33.1038 37.831 33.0945 37.8353C33.0758 37.844 33.0533 37.8546 33.0269 37.867C32.9742 37.8917 32.9062 37.9239 32.824 37.9633C32.6597 38.0421 32.4379 38.15 32.1665 38.2857C31.6248 38.5567 30.879 38.9419 29.9932 39.4307C28.2414 40.3976 25.8461 41.8232 23.3661 43.63C20.9289 45.4055 18.1268 47.7525 15.7726 50.6236C13.4646 53.4383 11.0374 57.4287 10.5247 62.4032L20.472 63.4284ZM37.3255 46.8962C47.2436 48.1739 47.2433 48.176 47.243 48.1781C47.2429 48.1787 47.2427 48.1807 47.2425 48.1819C47.2422 48.1842 47.2419 48.1864 47.2417 48.1882C47.2412 48.1919 47.2409 48.1945 47.2407 48.196C47.2403 48.1991 47.2404 48.198 47.2411 48.1928C47.2425 48.1823 47.2462 48.1555 47.2523 48.1133C47.2645 48.0288 47.2861 47.8835 47.3181 47.6852C47.3823 47.2873 47.4869 46.684 47.6387 45.9369C47.9471 44.4196 48.427 42.4245 49.113 40.4022C49.8175 38.3249 50.6233 36.5672 51.4517 35.3248C52.3217 34.0202 52.7198 34.0181 52.3379 34.1672L48.7005 24.8522L45.0631 15.5372C40.1876 17.441 36.9171 21.0718 34.8117 24.2294C32.6647 27.4493 31.1885 30.9832 30.1727 33.9783C29.1383 37.0282 28.4596 39.8861 28.0394 41.9537C27.8269 42.9991 27.6748 43.8712 27.5732 44.5007C27.5224 44.816 27.4839 45.0723 27.4567 45.2611C27.4431 45.3555 27.4323 45.4332 27.4242 45.493C27.4201 45.523 27.4167 45.5485 27.4139 45.5694C27.4125 45.5799 27.4113 45.5892 27.4102 45.5974C27.4097 45.6015 27.4092 45.6053 27.4087 45.6088C27.4085 45.6105 27.4082 45.613 27.4081 45.6138C27.4078 45.6162 27.4075 45.6184 37.3255 46.8962Z" fill="#061520"/>
<path d="M72.8403 36.1418C72.8403 36.1418 58.2172 20.8646 48.4037 24.696C39.4162 28.205 37.0281 46.7398 37.0281 46.7398C37.0281 46.7398 21.1233 54.0733 20.1753 63.2726C19.115 73.5614 37.0281 83.6208 37.0281 83.6208C37.0281 83.6208 29.7083 102.391 37.0281 109.056C45.67 116.925 65.2565 99.3057 65.2565 99.3057C65.2565 99.3057 84.3982 105.034 96.5001 101C108.5 97.0003 118.499 87.6208 113.5 76.0003C110.284 68.5248 95.1702 60.7291 95.1702 60.7291C95.1702 60.7291 108.442 39.7979 100.226 31.9027C92.4009 24.3831 72.8403 36.1418 72.8403 36.1418Z" fill="#F4B400"/>
<path d="M57.8855 51.9963C57.7222 51.4557 57.5026 50.9242 57.159 50.4945C56.8152 50.0648 56.3745 49.7719 55.8798 49.669C55.3851 49.5661 54.8642 49.659 54.3776 49.9161C53.8911 50.1731 53.4778 50.5731 53.1126 51.0037C53.1126 51.0037 53.1126 51.0037 53.1126 51.0037C52.7409 51.467 52.3909 51.9195 52.0542 52.3858C49.0594 56.5933 47.1673 60.9768 47.0037 66.4029C47.0018 66.5198 47.0009 66.6366 47.0011 66.7532C47.0871 72.2012 49.0197 76.5952 52.033 80.6821C52.3794 81.1434 52.739 81.589 53.1268 82.0605C53.5036 82.4812 53.9275 82.8698 54.4207 83.1136C54.9141 83.3574 55.4373 83.4363 55.9291 83.3201C56.4209 83.2039 56.8535 82.8992 57.1855 82.4603C57.5174 82.0215 57.7226 81.4843 57.8712 80.9395C57.8712 80.9395 57.8712 80.9395 57.8712 80.9395C58.0319 80.4351 58.175 79.8824 58.3143 79.3607C59.5506 74.7418 59.9554 70.2943 59.998 66.835C59.9994 66.7636 60.0007 66.6904 60.0019 66.6157C60.0947 62.9347 59.7087 58.3221 58.3605 53.5821C58.2127 53.0538 58.0575 52.5047 57.8855 51.9963Z" fill="#061520"/>
<path d="M76.6127 51.2535C76.3709 50.6959 76.0721 50.1545 75.6546 49.7363C75.2368 49.318 74.7331 49.0569 74.1936 49.0046C73.6542 48.9522 73.1096 49.1116 72.6192 49.4418C72.1291 49.7719 71.7318 50.2457 71.3873 50.7465C71.3873 50.7465 71.3873 50.7465 71.3873 50.7465C71.0451 51.2584 70.7203 51.7695 70.4105 52.288C67.696 56.8567 66.1219 61.4634 66.0026 66.6646C66.0009 66.7732 66 66.8823 66 66.992C66.0376 72.3363 67.6246 77.0589 70.4066 81.7236C70.7177 82.2404 71.0443 82.7532 71.3883 83.2636C71.7347 83.7631 72.1339 84.2353 72.6253 84.5636C73.1169 84.8918 73.6621 85.0491 74.2014 84.9946C74.7406 84.9402 75.2434 84.6772 75.6595 84.2573C76.0754 83.8374 76.3721 83.2949 76.6117 82.7364C76.6117 82.7364 76.6117 82.7364 76.6117 82.7364C76.8518 82.204 77.0769 81.6402 77.2901 81.0916C79.2216 76.1641 80.0236 71.2912 80 67.0028C80 66.9182 79.9998 66.8351 79.9994 66.7536C80.006 62.5281 79.1999 57.729 77.2957 52.9017C77.0813 52.3507 76.8542 51.7901 76.6127 51.2535Z" fill="#061520"/>
<defs>
<filter id="filter0_d_1_353" x="3.5248" y="8.33541" width="128.496" height="120.792" filterUnits="userSpaceOnUse" color-interpolation-filters="sRGB">
<feFlood flood-opacity="0" result="BackgroundImageFix"/>
<feColorMatrix in="SourceAlpha" type="matrix" values="0 0 0 0 0 0 0 0 0 0 0 0 0 0 0 0 0 0 127 0" result="hardAlpha"/>
<feOffset dy="1"/>
<feGaussianBlur stdDeviation="0.95"/>
<feComposite in2="hardAlpha" operator="out"/>
<feColorMatrix type="matrix" values="0 0 0 0 0 0 0 0 0 0 0 0 0 0 0 0 0 0 0.11 0"/>
<feBlend mode="normal" in2="BackgroundImageFix" result="effect1_dropShadow_1_353"/>
<feBlend mode="normal" in="SourceGraphic" in2="effect1_dropShadow_1_353" result="shape"/>
</filter>
</defs>
</svg>
